<svg xmlns="http://www.w3.org/2000/svg" xmlns:xlink="http://www.w3.org/1999/xlink"><defs>
<clipPath id="clip0_166612_3111">
<rect width="60" height="60" fill="white" transform="matrix(-1 0 0 1 60 0)"/>
</clipPath>

    <linearGradient id="a" x1="19.778" x2="19.778" y1="24.276" y2="72" gradientUnits="userSpaceOnUse">
      <stop stop-color="#FFA948"/>
      <stop offset=".516" stop-color="#FF6E14"/>
    </linearGradient>
    <linearGradient id="b" x1="19.778" x2="19.778" y1="24.276" y2="72" gradientUnits="userSpaceOnUse">
      <stop stop-color="#FFA948"/>
      <stop offset=".516" stop-color="#FF6E14"/>
    </linearGradient>
  </defs><symbol id="closed-search" viewBox="0 0 24 24">
  <path fill="#999" d="m8.954 7.304 8.248 8.248-1.65 1.65-8.248-8.248z"/>
  <path fill="#999" d="m7.304 15.552 8.248-8.248 1.65 1.65-8.248 8.248z"/>
  <circle cx="12" cy="12" r="11" stroke="#999" stroke-width="2"/>
</symbol><symbol id="closed-tab" viewBox="0 0 50 50">
<ellipse cx="25" cy="25" rx="25" ry="25" fill="#ECECEC"/>
<path fill-rule="evenodd" clip-rule="evenodd" d="M25.5 23.8737L36.147 13.2267L36.7733 13.853L26.1263 24.5L31.7412 30.1149L36.7733 35.147L36.147 35.7733L25.5 25.1263L14.853 35.7733L14.2267 35.147L24.8737 24.5L14.2267 13.853L14.853 13.2267L25.5 23.8737Z" fill="#666666"/>
</symbol><symbol id="fb" viewBox="0 0 60 60">
<path d="M30 0C13.5 0 0 13.5241 0 30.1807C0 45.241 10.98 57.741 25.32 60V38.9157H17.7V30.1807H25.32V23.5241C25.32 15.9639 29.79 11.8072 36.66 11.8072C39.93 11.8072 43.3499 12.3795 43.3499 12.3795V19.8193H39.57C35.85 19.8193 34.68 22.1386 34.68 24.5181V30.1807H43.0199L41.6699 38.9157H34.68V60C41.7493 58.8791 48.1866 55.2576 52.8297 49.7893C57.4729 44.3211 60.016 37.3664 59.9999 30.1807C59.9999 13.5241 46.4999 0 30 0Z" fill="#7C7C7C"/>
</symbol><symbol id="focus-tab" viewBox="0 0 50 50">
<ellipse cx="25" cy="25" rx="25" ry="25" fill="#FF9900"/>
<path fill-rule="evenodd" clip-rule="evenodd" d="M25.0571 24.0571L25.0571 9L25.9429 9L25.9429 24.0571L33.8835 24.0571L41 24.0571L41 24.9429L25.9429 24.9429L25.9429 40L25.0571 40L25.0571 24.9429L10 24.9429L10 24.0571L25.0571 24.0571Z" fill="white"/>
</symbol><symbol id="instagram" viewBox="0 0 60 60">
<g clip-path="url(#clip0_166612_3111)">
<path d="M24.2578 30C24.2578 33.1714 26.8286 35.7422 30 35.7422C33.1714 35.7422 35.7422 33.1714 35.7422 30C35.7422 26.8286 33.1714 24.2578 30 24.2578C26.8286 24.2578 24.2578 26.8286 24.2578 30Z" fill="#7C7C7C"/>
<path d="M16.571 19.8403C16.8471 19.0923 17.2874 18.4153 17.8596 17.8596C18.4154 17.2874 19.0919 16.847 19.8404 16.571C20.4474 16.3352 21.3593 16.0546 23.0388 15.9781C24.8557 15.8953 25.4004 15.8774 30 15.8774C34.6001 15.8774 35.1448 15.8948 36.9612 15.9777C38.6407 16.0546 39.5531 16.3352 40.1596 16.571C40.9081 16.847 41.5851 17.2874 42.1404 17.8596C42.7126 18.4153 43.1529 19.0919 43.4294 19.8403C43.6652 20.4473 43.9458 21.3596 44.0222 23.0392C44.1051 24.8556 44.1229 25.4003 44.1229 30.0004C44.1229 34.6 44.1051 35.1447 44.0222 36.9616C43.9458 38.6411 43.6652 39.553 43.4294 40.16C43.1529 40.9084 42.713 41.585 42.1408 42.1407C41.5851 42.7129 40.9085 43.1533 40.1601 43.4293C39.5531 43.6655 38.6407 43.9461 36.9612 44.0226C35.1448 44.1054 34.6005 44.1228 30.0005 44.1228C25.3999 44.1228 24.8552 44.1054 23.0392 44.0226C21.3597 43.9461 20.4474 43.6655 19.8404 43.4293C18.338 42.8498 17.1506 41.6624 16.571 40.16C16.3353 39.553 16.0547 38.6411 15.9778 36.9616C15.8949 35.1447 15.8775 34.6 15.8775 30.0004C15.8775 25.4003 15.8949 24.8556 15.9778 23.0392C16.0542 21.3596 16.3348 20.4473 16.571 19.8403ZM30 38.8457C34.8857 38.8457 38.8463 34.8856 38.8463 29.9999C38.8463 25.1142 34.8857 21.1541 30 21.1541C25.1147 21.1541 21.1542 25.1142 21.1542 29.9999C21.1542 34.8856 25.1147 38.8457 30 38.8457ZM20.8044 22.8716C21.9461 22.8716 22.8717 21.946 22.8717 20.8044C22.8717 19.6627 21.9461 18.7371 20.8044 18.7371C19.6628 18.7371 18.7372 19.6627 18.7372 20.8044C18.7376 21.946 19.6628 22.8716 20.8044 22.8716Z" fill="#7C7C7C"/>
<path d="M30 0C46.566 0 60 13.434 60 30C60 46.566 46.566 60 30 60C13.434 60 0 46.566 0 30C0 13.434 13.434 0 30 0ZM12.8773 37.1022C12.9607 38.936 13.2523 40.188 13.678 41.2839C14.5729 43.5979 16.4021 45.4271 18.7161 46.322C19.8116 46.7477 21.064 47.0389 22.8973 47.1227C24.7343 47.2064 25.3212 47.2266 29.9995 47.2266C34.6783 47.2266 35.2647 47.2064 37.1022 47.1227C38.9355 47.0389 40.188 46.7477 41.2834 46.322C42.4333 45.8894 43.4743 45.2115 44.3349 44.3349C45.211 43.4747 45.889 42.4333 46.3216 41.2839C46.7473 40.1884 47.0389 38.936 47.1222 37.1027C47.2069 35.2652 47.2266 34.6783 47.2266 30C47.2266 25.3217 47.2069 24.7348 47.1227 22.8978C47.0393 21.064 46.7482 19.812 46.3225 18.7161C45.8899 17.5667 45.2115 16.5253 44.3349 15.6651C43.4747 14.7885 42.4333 14.1106 41.2839 13.678C40.188 13.2523 38.936 12.9611 37.1022 12.8773C35.2652 12.7936 34.6783 12.7734 30 12.7734C25.3217 12.7734 24.7348 12.7936 22.8978 12.8778C21.064 12.9611 19.812 13.2523 18.7161 13.6775C17.5667 14.1101 16.5253 14.7885 15.6647 15.6651C14.7885 16.5257 14.1101 17.5667 13.678 18.7161C13.2518 19.812 12.9607 21.064 12.8769 22.8978C12.7931 24.7348 12.7734 25.3217 12.7734 30C12.7734 34.6783 12.7931 35.2652 12.8773 37.1022Z" fill="#7C7C7C"/>
</g>

</symbol><symbol id="logo" viewBox="0 0 225 72">
  <path fill="#333" d="M70.538 36.29c-1.1.632-2.435 1.132-4.005 1.499-1.57.367-3.2.55-4.892.55-2.283 0-4.23-.275-5.84-.825-1.59-.55-2.793-1.315-3.608-2.294-.795-.978-1.193-2.11-1.193-3.394 0-1.12.306-2.11.917-2.966.612-.856 1.458-1.518 2.538-1.987-.836-.428-1.478-1.02-1.926-1.774a5.161 5.161 0 0 1-.642-2.538c0-1.182.367-2.262 1.1-3.24.755-.98 1.896-1.764 3.425-2.355s3.415-.887 5.657-.887c1.406 0 2.793.133 4.158.398 1.366.265 2.569.622 3.608 1.07l-1.65 4.525a14.408 14.408 0 0 0-5.872-1.253c-1.447 0-2.527.193-3.24.58-.714.367-1.07.887-1.07 1.56 0 1.223.886 1.835 2.66 1.835h6.053v4.617h-6.451c-1.04 0-1.825.173-2.355.52-.53.326-.795.815-.795 1.467 0 .693.388 1.234 1.162 1.62.775.388 1.978.582 3.608.582 1.162 0 2.355-.153 3.578-.459 1.243-.326 2.324-.764 3.24-1.315l1.835 4.465Zm15.584-7.063c1.896.632 2.844 1.937 2.844 3.914 0 1.488-.58 2.66-1.743 3.516-1.162.836-2.874 1.254-5.137 1.254H72.76V21.338h8.898c2.161 0 3.832.378 5.015 1.132 1.203.754 1.804 1.814 1.804 3.18 0 .795-.204 1.498-.612 2.11-.407.611-.988 1.1-1.743 1.467Zm-8.164-1.223h3.18c1.346 0 2.018-.5 2.018-1.498 0-.958-.672-1.437-2.018-1.437h-3.18v2.935Zm3.609 6.146c1.406 0 2.11-.51 2.11-1.529s-.684-1.529-2.05-1.529h-3.669v3.058h3.609Zm18.1-2.14H97.71v5.901H91.9V21.338h5.81v6.116h2.08l4.066-6.116h6.146l-5.565 7.95 5.932 8.623h-6.849l-3.853-5.901Zm29.507-10.672v16.573h-5.81V25.955h-4.189l-.122 2.538c-.082 2.161-.296 3.945-.642 5.351-.347 1.407-.918 2.508-1.713 3.303-.795.774-1.885 1.162-3.271 1.162-.714 0-1.652-.133-2.814-.398l.245-4.74c.367.041.612.062.734.062.632 0 1.111-.204 1.437-.612.326-.407.55-.948.673-1.62.122-.693.204-1.61.244-2.752l.245-6.91h14.983Zm20.966 0v16.573h-5.535v-1.743a6.122 6.122 0 0 1-2.201 1.498 6.956 6.956 0 0 1-2.691.52c-2.161 0-3.883-.632-5.168-1.895-1.263-1.264-1.895-3.16-1.895-5.688v-9.265h5.809v8.317c0 2.385.928 3.578 2.783 3.578.917 0 1.661-.316 2.232-.948.571-.652.856-1.641.856-2.966v-7.98h5.81Zm21.542 0v13.546c0 3.078-.835 5.382-2.507 6.91-1.671 1.55-4.077 2.324-7.216 2.324-1.631 0-3.16-.183-4.587-.55-1.426-.367-2.639-.907-3.638-1.62l2.11-4.068c.672.55 1.518.979 2.538 1.285 1.039.326 2.058.489 3.057.489 1.529 0 2.65-.336 3.364-1.01.713-.672 1.07-1.67 1.07-2.996v-.55c-1.121 1.305-2.762 1.957-4.923 1.957-1.468 0-2.823-.326-4.067-.979a7.717 7.717 0 0 1-2.966-2.813c-.734-1.223-1.1-2.63-1.1-4.22 0-1.569.366-2.955 1.1-4.158a7.43 7.43 0 0 1 2.966-2.813c1.244-.672 2.599-1.009 4.067-1.009 2.365 0 4.097.765 5.198 2.294v-2.019h5.534Zm-9.356 11.1c1.04 0 1.896-.316 2.568-.948.693-.632 1.04-1.447 1.04-2.446 0-1-.336-1.804-1.009-2.416-.673-.632-1.539-.948-2.599-.948-1.06 0-1.937.316-2.63.948-.672.612-1.009 1.417-1.009 2.416 0 .999.347 1.814 1.04 2.446.693.632 1.559.948 2.599.948ZM60.426 46.01v9.979h-2.794v-7.741H53.84v7.74h-2.78V46.01h9.366Zm6.11 2.124c.846 0 1.583.161 2.21.484a3.35 3.35 0 0 1 1.44 1.398c.342.598.513 1.302.513 2.11 0 .798-.157 1.5-.47 2.11a3.417 3.417 0 0 1-1.326 1.396c-.57.323-1.231.485-1.982.485-.884 0-1.577-.271-2.081-.813v3.45h-2.709v-6.6c0-.799.181-1.502.542-2.11a3.635 3.635 0 0 1 1.54-1.411c.665-.333 1.44-.5 2.323-.5Zm-.128 5.83c.485 0 .874-.166 1.169-.499.304-.342.456-.789.456-1.34 0-.55-.152-.993-.456-1.325-.295-.343-.684-.514-1.169-.514s-.874.171-1.169.514c-.294.332-.442.774-.442 1.325 0 .561.143 1.008.428 1.34.294.333.689.5 1.183.5Zm9.406 2.153c-.827 0-1.573-.171-2.238-.513a3.924 3.924 0 0 1-1.568-1.426c-.37-.608-.556-1.297-.556-2.067 0-.76.185-1.444.556-2.053a3.845 3.845 0 0 1 1.554-1.411c.665-.342 1.416-.513 2.252-.513.837 0 1.587.17 2.253.513a3.728 3.728 0 0 1 1.553 1.411c.371.599.556 1.283.556 2.053s-.185 1.459-.556 2.067a3.823 3.823 0 0 1-1.553 1.426c-.666.342-1.416.513-2.253.513Zm0-2.153c.475 0 .865-.161 1.17-.484.303-.333.455-.79.455-1.369 0-.57-.152-1.017-.456-1.34-.304-.323-.694-.485-1.169-.485-.475 0-.865.162-1.169.485-.304.323-.456.77-.456 1.34 0 .58.152 1.036.456 1.369.304.323.694.484 1.17.484Zm9.724.086c.37 0 .689-.052.955-.157.276-.105.551-.276.827-.513l1.411 1.482c-.732.837-1.825 1.255-3.279 1.255-.903 0-1.696-.171-2.38-.513a3.881 3.881 0 0 1-1.597-1.426c-.37-.608-.556-1.297-.556-2.067 0-.76.185-1.44.556-2.038.37-.609.88-1.084 1.525-1.426.656-.342 1.388-.513 2.196-.513.75 0 1.435.157 2.053.47a3.55 3.55 0 0 1 1.496 1.355c.371.589.556 1.292.556 2.11l-5.517 1.054c.295.618.88.927 1.754.927Zm-.328-3.992c-.466 0-.846.148-1.14.442-.295.285-.461.699-.5 1.24l3.137-.613a1.405 1.405 0 0 0-.542-.77 1.549 1.549 0 0 0-.955-.299Zm9.004 3.179H93.3v2.752h-2.708v-7.727H93.3v2.851h.97l1.896-2.85h2.865l-2.594 3.706 2.765 4.02H96.01l-1.796-2.752Zm15.951-5.103c.951 0 1.706.285 2.267.855.57.57.855 1.43.855 2.58v4.42h-2.708V52.01c0-.541-.105-.94-.314-1.197-.199-.257-.485-.385-.855-.385-.409 0-.737.142-.984.428-.247.285-.37.717-.37 1.297v3.834h-2.709V52.01c0-1.055-.39-1.582-1.169-1.582-.418 0-.751.142-.998.428-.247.285-.37.717-.37 1.297v3.834h-2.709v-7.726h2.58v.813a2.659 2.659 0 0 1 1.012-.699 3.43 3.43 0 0 1 1.298-.242c.541 0 1.026.1 1.454.3.427.199.774.503 1.04.912.304-.39.689-.69 1.155-.899a3.68 3.68 0 0 1 1.525-.313Zm4.762.128h2.694v2.865h2.78v-2.865h2.709v7.727h-2.709V53.28h-2.78v2.709h-2.694v-7.727Zm13.688 7.955c-2.557 0-3.835-1.098-3.835-3.293v-4.662h2.694v2.452c.2-.133.466-.242.798-.328a4.84 4.84 0 0 1 1.169-.128c.951 0 1.697.242 2.238.727.542.475.813 1.183.813 2.124 0 1.017-.352 1.791-1.055 2.324-.694.522-1.635.784-2.822.784Zm4.518-7.955h2.709v7.727h-2.709v-7.727Zm-4.518 6.101c.37 0 .651-.109.841-.328.19-.218.285-.508.285-.869 0-.352-.095-.627-.285-.827-.19-.2-.466-.3-.827-.3a1.57 1.57 0 0 0-.684.143c-.2.095-.357.224-.471.385v.599c0 .37.095.665.285.884.19.209.475.313.856.313Zm13.137-.313a2.6 2.6 0 0 0 .955-.157c.276-.105.551-.276.827-.513l1.411 1.482c-.732.837-1.825 1.255-3.279 1.255-.902 0-1.696-.171-2.38-.513-.684-.343-1.217-.818-1.597-1.426-.37-.608-.556-1.297-.556-2.067 0-.76.186-1.44.556-2.038a3.868 3.868 0 0 1 1.526-1.426c.655-.342 1.387-.513 2.195-.513a4.47 4.47 0 0 1 2.053.47 3.547 3.547 0 0 1 1.496 1.355c.371.589.556 1.292.556 2.11l-5.516 1.054c.294.618.879.927 1.753.927Zm-.328-3.992c-.466 0-.846.148-1.14.442-.295.285-.461.699-.499 1.24l3.136-.613a1.406 1.406 0 0 0-.542-.77 1.549 1.549 0 0 0-.955-.299Zm13.409 6.059c-.855 0-1.62-.171-2.295-.513a3.908 3.908 0 0 1-1.583-1.426c-.37-.608-.555-1.297-.555-2.067 0-.77.185-1.454.555-2.053a3.81 3.81 0 0 1 1.583-1.411c.675-.342 1.44-.513 2.295-.513.874 0 1.63.19 2.267.57.636.37 1.088.889 1.354 1.554l-2.096 1.069c-.351-.694-.865-1.04-1.539-1.04-.485 0-.889.16-1.212.484-.314.323-.47.77-.47 1.34 0 .58.156 1.036.47 1.369.323.323.727.484 1.212.484.674 0 1.188-.347 1.539-1.04l2.096 1.069a3.155 3.155 0 0 1-1.354 1.568c-.637.37-1.393.556-2.267.556Zm12.708-7.855v7.727h-2.58v-.813a2.856 2.856 0 0 1-1.026.698c-.39.162-.808.243-1.255.243-1.007 0-1.81-.295-2.409-.884-.589-.59-.884-1.473-.884-2.651v-4.32h2.709v3.878c0 1.111.432 1.667 1.297 1.667.428 0 .774-.147 1.04-.442.267-.304.4-.765.4-1.382v-3.72h2.708Zm5.696 7.855c-.855 0-1.621-.171-2.295-.513a3.908 3.908 0 0 1-1.583-1.426c-.37-.608-.556-1.297-.556-2.067 0-.77.186-1.454.556-2.053a3.81 3.81 0 0 1 1.583-1.411c.674-.342 1.44-.513 2.295-.513.874 0 1.63.19 2.266.57.637.37 1.089.889 1.355 1.554l-2.096 1.069c-.351-.694-.865-1.04-1.539-1.04-.485 0-.889.16-1.212.484-.314.323-.471.77-.471 1.34 0 .58.157 1.036.471 1.369.323.323.727.484 1.212.484.674 0 1.188-.347 1.539-1.04l2.096 1.069a3.153 3.153 0 0 1-1.355 1.568c-.636.37-1.392.556-2.266.556Zm14.818-7.983c.95 0 1.706.285 2.266.855.571.57.856 1.43.856 2.58v4.42h-2.709V52.01c0-.541-.104-.94-.313-1.197-.2-.257-.485-.385-.856-.385-.408 0-.736.142-.983.428-.247.285-.371.717-.371 1.297v3.834h-2.708V52.01c0-1.055-.39-1.582-1.169-1.582-.419 0-.751.142-.998.428-.247.285-.371.717-.371 1.297v3.834h-2.708v-7.726h2.58v.813a2.651 2.651 0 0 1 1.012-.699 3.421 3.421 0 0 1 1.297-.242c.542 0 1.027.1 1.454.3.428.199.775.503 1.041.912.304-.39.689-.69 1.155-.899a3.679 3.679 0 0 1 1.525-.313Zm8.853 5.916a2.6 2.6 0 0 0 .955-.157c.276-.105.551-.276.827-.513l1.411 1.482c-.732.837-1.824 1.255-3.278 1.255-.903 0-1.697-.171-2.381-.513-.684-.343-1.217-.818-1.597-1.426-.37-.608-.556-1.297-.556-2.067 0-.76.186-1.44.556-2.038a3.868 3.868 0 0 1 1.526-1.426c.655-.342 1.387-.513 2.195-.513a4.47 4.47 0 0 1 2.053.47 3.547 3.547 0 0 1 1.496 1.355c.371.589.556 1.292.556 2.11l-5.516 1.054c.294.618.879.927 1.753.927Zm-.328-3.992c-.466 0-.846.148-1.14.442-.295.285-.461.699-.499 1.24l3.136-.613a1.406 1.406 0 0 0-.542-.77 1.549 1.549 0 0 0-.955-.299Zm12.881 5.931v-4.063l-1.981 3.378h-1.155l-1.924-3.435v4.12h-2.438v-7.727h2.851l2.153 4.034 2.366-4.034h2.552l.014 7.727h-2.438Zm7.943.228c-2.556 0-3.834-1.098-3.834-3.293v-4.662h2.694v2.452c.2-.133.466-.242.798-.328a4.833 4.833 0 0 1 1.169-.128c.951 0 1.697.242 2.238.727.542.475.813 1.183.813 2.124 0 1.017-.352 1.791-1.055 2.324-.694.522-1.635.784-2.823.784Zm4.519-7.955h2.709v7.727h-2.709v-7.727Zm-4.519 6.101c.371 0 .651-.109.841-.328.191-.218.286-.508.286-.869 0-.352-.095-.627-.286-.827-.19-.2-.465-.3-.826-.3-.257 0-.485.048-.685.143a1.188 1.188 0 0 0-.47.385v.599c0 .37.095.665.285.884.19.209.475.313.855.313Z"/>
  <path fill="url(#a)" d="m9.345 42.715 8.006-18.44h2.685v5.217l-5.681 13.223h4.235v-2.376c0-.579.964-.62 1.446-.569v7.283c-1.322 0-1.515-.447-1.446-.671v-2.066h-5.01L1.184 72H.72l3.151-9.555s-2.79-1.085-1.86-3.41c.93-2.323 6.508-14.72 6.508-14.72H2.011v-1.6h7.334Z"/>
  <path fill="url(#b)" d="m30.211 42.715-8.005-18.44H19.52v5.217l5.68 13.223h-4.235v-2.376c0-.579-.964-.62-1.446-.569v7.283c1.322 0 1.515-.447 1.446-.671v-2.066h5.01L38.372 72h.465l-3.15-9.555s2.788-1.085 1.859-3.41c-.93-2.323-6.508-14.72-6.508-14.72h6.508v-1.6H30.21Z"/>
  <path fill="#333" fill-rule="evenodd" d="M19.83 21.59a5.475 5.475 0 1 0 0-10.95 5.475 5.475 0 0 0 0 10.95Zm0 2.995a8.47 8.47 0 1 0 0-16.94 8.47 8.47 0 0 0 0 16.94Z" clip-rule="evenodd"/>
  <path fill="#333" d="M18.28 0h3.1v8.16h-3.1V0Z"/>
  
</symbol><symbol id="open-tab" viewBox="0 0 50 50">
<ellipse cx="25" cy="25" rx="25" ry="25" fill="#ECECEC"/>
<path fill-rule="evenodd" clip-rule="evenodd" d="M25.0571 24.0571L25.0571 9L25.9429 9L25.9429 24.0571L33.8835 24.0571L41 24.0571L41 24.9429L25.9429 24.9429L25.9429 40L25.0571 40L25.0571 24.9429L10 24.9429L10 24.0571L25.0571 24.0571Z" fill="#666666"/>
</symbol><symbol id="search-line" viewBox="0 0 24 24">
<path d="M18.031 16.617L22.314 20.899L20.899 22.314L16.617 18.031C15.0237 19.3082 13.042 20.0029 11 20C6.032 20 2 15.968 2 11C2 6.032 6.032 2 11 2C15.968 2 20 6.032 20 11C20.0029 13.042 19.3082 15.0237 18.031 16.617ZM16.025 15.875C17.2941 14.5699 18.0029 12.8204 18 11C18 7.133 14.867 4 11 4C7.133 4 4 7.133 4 11C4 14.867 7.133 18 11 18C12.8204 18.0029 14.5699 17.2941 15.875 16.025L16.025 15.875Z" fill="black"/>
</symbol><symbol id="search" viewBox="0 0 24 24">
<rect width="7.56126" height="1.89031" transform="matrix(0.713342 0.700816 -0.713342 0.700816 18.6062 17.3762)" fill="#333333"/>
<path d="M20.9303 10.7726C20.9303 16.1533 16.4855 20.5452 10.9652 20.5452C5.44478 20.5452 1 16.1533 1 10.7726C1 5.39198 5.44478 1 10.9652 1C16.4855 1 20.9303 5.39198 20.9303 10.7726Z" fill="none" stroke="#333333" stroke-width="2"/>
</symbol><symbol id="search1" viewBox="0 0 24 24">
  <path fill="#333" d="M18.607 17.376 24 22.675l-1.348 1.324-5.393-5.298z"/>
  <path stroke="#333" stroke-width="2" d="M20.93 10.773c0 5.38-4.445 9.772-9.965 9.772S1 16.153 1 10.773C1 5.392 5.445 1 10.965 1s9.965 4.392 9.965 9.773Z"/>
</symbol><symbol id="search_main" viewBox="0 0 24 24">
<g id="status=default">
<rect id="Rectangle 3" width="7.56126" height="1.89031" transform="matrix(0.713342 0.700816 -0.713342 0.700816 18.6062 17.3762)" fill="#333333"/>
<path id="Ellipse 1" d="M20.9303 10.7726C20.9303 16.1533 16.4855 20.5452 10.9652 20.5452C5.44478 20.5452 1 16.1533 1 10.7726C1 5.39198 5.44478 1 10.9652 1C16.4855 1 20.9303 5.39198 20.9303 10.7726Z" stroke="#333333" stroke-width="2"/>
</g>
</symbol><symbol id="vk" viewBox="0 0 60 60">
<path d="M30 0C13.432 0 0 13.4314 0 30C0 46.5686 13.432 60 30 60C46.568 60 60 46.5686 60 30C60 13.4314 46.568 0 30 0ZM45.2176 33.2446C46.6159 34.6103 48.0951 35.8957 49.3504 37.4026C49.9065 38.0692 50.4307 38.7585 50.8297 39.5337C51.3993 40.6392 50.8849 41.8515 49.8954 41.9171L43.7494 41.9159C42.162 42.0473 40.8988 41.4071 39.8339 40.3218C38.9837 39.457 38.195 38.5332 37.3762 37.6389C37.0416 37.2718 36.6893 36.9262 36.2695 36.6543C35.4316 36.1093 34.7036 36.2762 34.2236 37.1515C33.7344 38.0421 33.6227 39.0292 33.5761 40.0205C33.5092 41.4697 33.0721 41.8484 31.618 41.9165C28.5109 42.062 25.5628 41.5906 22.8227 40.0241C20.4055 38.6425 18.5346 36.6924 16.9043 34.4845C13.7297 30.1805 11.2984 25.4566 9.11386 20.597C8.6222 19.5026 8.98189 18.917 10.1893 18.8943C12.1952 18.8557 14.2011 18.8606 16.2071 18.8925C17.0234 18.9054 17.5636 19.3725 17.8772 20.1428C18.9612 22.8098 20.2901 25.3473 21.9554 27.7007C22.3992 28.3274 22.8522 28.9522 23.4973 29.3948C24.2093 29.8834 24.7519 29.7219 25.0877 28.9271C25.3025 28.4219 25.3952 27.8817 25.4418 27.3404C25.6014 25.486 25.6205 23.6323 25.3442 21.7854C25.1724 20.6296 24.5224 19.8832 23.3702 19.6647C22.7834 19.5536 22.8694 19.3363 23.1548 19.0011C23.6501 18.4217 24.1142 18.0632 25.0416 18.0632L31.9857 18.062C33.0801 18.2768 33.3256 18.7679 33.4742 19.8703L33.4803 27.5871C33.4674 28.0137 33.6945 29.2782 34.4606 29.5574C35.0744 29.76 35.4795 29.2677 35.8465 28.8792C37.5118 27.112 38.6983 25.0263 39.7608 22.8675C40.2298 21.9155 40.6343 20.9303 41.0271 19.9433C41.3193 19.2135 41.7735 18.8544 42.5972 18.8667L49.2841 18.8747C49.4811 18.8747 49.6812 18.8765 49.8764 18.9103C51.0034 19.103 51.3121 19.5879 50.9635 20.6873C50.4147 22.4145 49.3485 23.8533 48.3063 25.2958C47.1892 26.8401 45.9977 28.3304 44.8917 29.8815C43.8752 31.2994 43.9556 32.0133 45.2176 33.2446Z" fill="#7C7C7C"/>
</symbol></svg>